<?xml version="1.0" encoding="utf-8"?>
<!-- Generator: Adobe Illustrator 23.1.0, SVG Export Plug-In . SVG Version: 6.00 Build 0)  -->
<svg version="1.1" id="圖層_1" xmlns="http://www.w3.org/2000/svg" xmlns:xlink="http://www.w3.org/1999/xlink" x="0px" y="0px"
	 viewBox="0 0 66.35 64" style="enable-background:new 0 0 66.35 64;" xml:space="preserve">
<style type="text/css">
	.st0{filter:url(#Adobe_OpacityMaskFilter);}
	.st1{fill:url(#SVGID_2_);}
	.st2{fill:#FFFFFF;}
	.st3{clip-path:url(#SVGID_4_);}
	.st4{filter:url(#Adobe_OpacityMaskFilter_1_);}
	.st5{fill:url(#SVGID_6_);}
	.st6{mask:url(#SVGID_5_);}
	.st7{filter:url(#Adobe_OpacityMaskFilter_2_);}
	.st8{fill:url(#SVGID_8_);}
	.st9{mask:url(#SVGID_7_);}
	.st10{fill:url(#SVGID_9_);}
	.st11{filter:url(#Adobe_OpacityMaskFilter_3_);}
	.st12{fill:url(#SVGID_11_);}
	.st13{filter:url(#Adobe_OpacityMaskFilter_4_);}
	.st14{fill:url(#SVGID_13_);}
	.st15{fill:url(#SVGID_14_);}
	.st16{clip-path:url(#SVGID_16_);}
	.st17{filter:url(#Adobe_OpacityMaskFilter_5_);}
	.st18{fill:url(#SVGID_19_);}
	.st19{mask:url(#_x38_9089774_x5F_m.psd_4_);}
	.st20{filter:url(#Adobe_OpacityMaskFilter_6_);}
	.st21{fill:url(#SVGID_22_);}
	.st22{mask:url(#_x38_9089774_x5F_m.psd_6_);}
	.st23{fill:url(#SVGID_25_);}
	.st24{fill:url(#SVGID_26_);}
	.st25{fill:#4CABD5;}
	.st26{fill:#0074C5;}
	.st27{fill:url(#SVGID_27_);}
	.st28{fill:url(#SVGID_28_);}
	.st29{fill:url(#SVGID_29_);}
	.st30{fill:url(#SVGID_30_);}
	.st31{fill:url(#SVGID_31_);}
	.st32{fill:url(#SVGID_32_);}
	.st33{fill:url(#SVGID_33_);}
	.st34{fill:url(#SVGID_34_);}
	.st35{fill:url(#SVGID_35_);}
	.st36{clip-path:url(#SVGID_37_);}
	.st37{clip-path:url(#SVGID_38_);}
	.st38{clip-path:url(#SVGID_39_);}
	.st39{clip-path:url(#SVGID_40_);}
	.st40{clip-path:url(#SVGID_41_);}
	.st41{clip-path:url(#SVGID_43_);}
	.st42{clip-path:url(#SVGID_44_);}
	.st43{clip-path:url(#SVGID_45_);}
	.st44{clip-path:url(#SVGID_46_);}
	.st45{fill:#E76B20;}
	.st46{fill:url(#SVGID_47_);}
	.st47{fill:url(#SVGID_49_);}
	.st48{fill:#0056B4;}
	.st49{fill:url(#SVGID_50_);}
	.st50{fill:url(#SVGID_51_);}
	.st51{fill:#2F70A5;}
	.st52{fill:#747678;}
	.st53{fill:none;stroke:#0056B4;stroke-miterlimit:10;}
	.st54{opacity:0.2;fill:#FFFFFF;}
	.st55{clip-path:url(#SVGID_53_);}
	.st56{fill:none;stroke:#E76B20;stroke-miterlimit:10;}
	.st57{fill:none;stroke:#0056B4;stroke-width:11;stroke-miterlimit:10;}
	.st58{fill:url(#SVGID_57_);}
	.st59{fill:url(#SVGID_58_);}
	.st60{fill:url(#SVGID_59_);}
	.st61{fill:none;stroke:#E76B20;stroke-width:2;stroke-miterlimit:10;}
	.st62{fill:#FFFF00;}
	.st63{fill:#D7D7D5;}
	.st64{fill:url(#SVGID_61_);}
	.st65{fill:url(#SVGID_62_);}
	.st66{fill:none;stroke:#E76B20;stroke-width:3;stroke-miterlimit:10;}
	.st67{fill:url(#SVGID_63_);}
	.st68{fill:url(#SVGID_64_);}
	.st69{fill:#FFFFFF;stroke:#74C8D2;stroke-linecap:round;stroke-linejoin:round;stroke-miterlimit:10;}
	.st70{clip-path:url(#SVGID_74_);fill:none;stroke:#FFFFFF;stroke-width:0.75;stroke-miterlimit:10;}
	.st71{clip-path:url(#SVGID_76_);fill:none;stroke:#FFFFFF;stroke-width:0.75;stroke-miterlimit:10;}
	.st72{clip-path:url(#SVGID_79_);fill:none;stroke:#FFFFFF;stroke-width:0.75;stroke-miterlimit:10;}
	.st73{fill:#1ECAD3;stroke:#FFFFFF;stroke-miterlimit:10;}
	.st74{clip-path:url(#SVGID_83_);fill:none;stroke:#FFFFFF;stroke-width:0.75;stroke-miterlimit:10;}
	.st75{fill:#1DCAD3;stroke:#FFFFFF;stroke-miterlimit:10;}
	.st76{fill:none;stroke:#1DCAD3;stroke-linecap:round;stroke-linejoin:round;stroke-miterlimit:10;}
	.st77{fill:#1DCAD3;}
	.st78{filter:url(#Adobe_OpacityMaskFilter_7_);}
	.st79{fill:url(#SVGID_86_);}
	.st80{opacity:0.1;}
	.st81{fill:#FF6C0E;}
	.st82{fill:none;stroke:#FF5100;stroke-miterlimit:10;}
	.st83{fill:#FFFFFF;stroke:#BFBFBF;stroke-miterlimit:10;}
	.st84{filter:url(#Adobe_OpacityMaskFilter_8_);}
	.st85{clip-path:url(#SVGID_88_);fill:url(#SVGID_90_);}
	.st86{fill:#0055B8;}
	.st87{fill:#BFBFBF;}
	.st88{fill:none;stroke:url(#SVGID_91_);stroke-width:2;stroke-miterlimit:10;}
	.st89{fill:none;stroke:url(#SVGID_92_);stroke-width:2;stroke-miterlimit:10;}
	.st90{fill:none;stroke:url(#SVGID_93_);stroke-width:3;stroke-miterlimit:10;}
	.st91{fill:none;stroke:url(#SVGID_94_);stroke-width:3;stroke-miterlimit:10;}
	.st92{fill:none;stroke:url(#SVGID_95_);stroke-width:2;stroke-miterlimit:10;}
	.st93{fill:url(#SVGID_96_);}
	.st94{fill:url(#SVGID_97_);}
	.st95{fill:#EEFF68;}
	.st96{clip-path:url(#SVGID_99_);fill:url(#SVGID_100_);}
	.st97{fill:url(#SVGID_101_);}
	.st98{fill:url(#SVGID_102_);}
	.st99{clip-path:url(#SVGID_104_);fill:url(#SVGID_105_);}
	.st100{filter:url(#Adobe_OpacityMaskFilter_9_);}
	.st101{clip-path:url(#SVGID_107_);fill:url(#SVGID_109_);}
	.st102{fill:none;}
	.st103{fill:url(#SVGID_110_);}
	.st104{fill:url(#SVGID_111_);}
	.st105{clip-path:url(#SVGID_113_);fill:url(#SVGID_114_);}
	.st106{fill:#A1A1A1;}
	.st107{fill:none;stroke:#FFFFFF;stroke-width:2;stroke-linecap:round;stroke-linejoin:round;stroke-miterlimit:10;}
	.st108{clip-path:url(#SVGID_118_);fill:none;stroke:#FFFFFF;stroke-width:0.75;stroke-miterlimit:10;}
	.st109{clip-path:url(#SVGID_122_);fill:none;stroke:#FFFFFF;stroke-width:0.75;stroke-miterlimit:10;}
	.st110{fill:none;stroke:#1ECAD3;stroke-linecap:round;stroke-linejoin:round;stroke-miterlimit:10;}
	.st111{fill:#1ECAD3;}
	.st112{filter:url(#Adobe_OpacityMaskFilter_10_);}
	.st113{fill:url(#SVGID_124_);}
	.st114{filter:url(#Adobe_OpacityMaskFilter_11_);}
	.st115{clip-path:url(#SVGID_126_);fill:url(#SVGID_128_);}
	.st116{filter:url(#Adobe_OpacityMaskFilter_12_);}
	.st117{fill:url(#SVGID_130_);}
	.st118{opacity:0.5;fill:url(#SVGID_131_);}
	.st119{opacity:0.5;fill:url(#SVGID_132_);}
	.st120{filter:url(#Adobe_OpacityMaskFilter_13_);}
	.st121{fill:url(#SVGID_134_);}
	.st122{filter:url(#Adobe_OpacityMaskFilter_14_);}
	.st123{clip-path:url(#SVGID_136_);fill:url(#SVGID_138_);}
	.st124{fill:url(#SVGID_139_);}
	.st125{fill:url(#SVGID_140_);}
	.st126{fill:url(#SVGID_141_);}
	.st127{fill:url(#SVGID_142_);}
	.st128{fill:url(#SVGID_143_);}
	.st129{fill:url(#SVGID_144_);}
	.st130{fill:#3C974C;}
	.st131{filter:url(#Adobe_OpacityMaskFilter_15_);}
	.st132{fill:url(#SVGID_146_);}
	.st133{mask:url(#SVGID_145_);}
	.st134{opacity:0.5;fill:url(#SVGID_147_);}
	.st135{opacity:0.5;fill:url(#SVGID_148_);}
	.st136{clip-path:url(#SVGID_150_);fill:url(#SVGID_151_);}
	.st137{fill:url(#SVGID_152_);}
	.st138{fill:url(#SVGID_153_);}
	.st139{fill:url(#SVGID_154_);}
	.st140{filter:url(#Adobe_OpacityMaskFilter_16_);}
	.st141{clip-path:url(#SVGID_156_);fill:url(#SVGID_158_);}
	.st142{fill:none;stroke:#FF5100;stroke-width:2;stroke-miterlimit:10;}
	.st143{filter:url(#Adobe_OpacityMaskFilter_17_);}
	.st144{fill:url(#SVGID_159_);}
	.st145{mask:url(#_x38_9089774_x5F_m.psd_8_);}
	.st146{fill:url(#SVGID_162_);}
	.st147{fill:url(#SVGID_163_);}
</style>
<path class="st48" d="M9.4,60.53h34.38c2.82,0,5.12-2.3,5.12-5.12V14.31c0-2.82-2.3-5.12-5.12-5.12h-5.24V7.37
	c0-0.94-0.76-1.71-1.71-1.71h-5.42c-0.7-1.99-2.6-3.42-4.83-3.42s-4.13,1.43-4.83,3.42h-5.53c-0.94,0-1.71,0.76-1.71,1.71v1.82H9.4
	c-2.82,0-5.12,2.3-5.12,5.12v41.09C4.28,58.23,6.57,60.53,9.4,60.53z M17.94,9.08h5.24c0.94,0,1.71-0.76,1.71-1.71
	c0-0.94,0.77-1.71,1.71-1.71s1.71,0.77,1.71,1.71c0,0.94,0.76,1.71,1.71,1.71h5.12v1.82c0,0.94-0.77,1.71-1.71,1.71H19.64
	c-0.94,0-1.71-0.77-1.71-1.71V9.08z M7.69,14.31c0-0.94,0.77-1.71,1.71-1.71h5.42c0.7,1.99,2.6,3.41,4.83,3.41h13.77
	c2.23,0,4.12-1.43,4.83-3.41h5.53c0.94,0,1.71,0.77,1.71,1.71v41.09c0,0.94-0.77,1.71-1.71,1.71H9.4c-0.94,0-1.71-0.77-1.71-1.71
	V14.31z"/>
<path class="st48" d="M15.02,41.13c0.33,0.33,0.77,0.5,1.21,0.5c0.43,0,0.87-0.16,1.2-0.49l6.94-6.83c0.67-0.66,0.68-1.74,0.02-2.41
	c-0.66-0.67-1.74-0.68-2.41-0.02l-5.74,5.64l-2.22-2.22c-0.67-0.67-1.75-0.67-2.41,0s-0.67,1.75,0,2.41L15.02,41.13z"/>
<path class="st48" d="M15.02,53.09c0.33,0.33,0.77,0.5,1.21,0.5c0.43,0,0.87-0.16,1.2-0.49l6.94-6.83c0.67-0.66,0.68-1.74,0.02-2.41
	c-0.66-0.67-1.74-0.68-2.41-0.02l-5.74,5.64l-2.22-2.22c-0.67-0.67-1.75-0.67-2.41,0s-0.67,1.75,0,2.41L15.02,53.09z"/>
<path class="st48" d="M11.61,29.18c0.67,0.67,1.75,0.67,2.41,0l2.21-2.21l2.21,2.21c0.67,0.67,1.75,0.67,2.41,0s0.67-1.75,0-2.41
	l-2.21-2.21l2.21-2.21c0.67-0.67,0.67-1.75,0-2.41c-0.67-0.67-1.75-0.67-2.41,0l-2.21,2.21l-2.21-2.21c-0.67-0.67-1.75-0.67-2.41,0
	s-0.67,1.75,0,2.41l2.21,2.21l-2.21,2.21C10.94,27.43,10.94,28.51,11.61,29.18z"/>
<path class="st48" d="M30,26.27h10.36c0.94,0,1.71-0.76,1.71-1.71s-0.76-1.71-1.71-1.71H30c-0.94,0-1.71,0.76-1.71,1.71
	S29.06,26.27,30,26.27z"/>
<path class="st48" d="M30,38.22h10.36c0.94,0,1.71-0.76,1.71-1.71c0-0.94-0.76-1.71-1.71-1.71H30c-0.94,0-1.71,0.76-1.71,1.71
	C28.3,37.45,29.06,38.22,30,38.22z"/>
<path class="st48" d="M30,50.17h10.36c0.94,0,1.71-0.76,1.71-1.71s-0.76-1.71-1.71-1.71H30c-0.94,0-1.71,0.76-1.71,1.71
	S29.06,50.17,30,50.17z"/>
<path class="st48" d="M52.4,45.58l3.42,10.36c0.23,0.7,0.88,1.17,1.62,1.17s1.39-0.47,1.62-1.17l3.42-10.36
	c0.06-0.17,0.09-0.37,0.09-0.53c0-1.12,0-26.23,0-27.32c0-2.82-2.3-5.12-5.12-5.12c-2.82,0-5.12,2.3-5.12,5.12
	c0,1.09,0,26.19,0,27.32C52.31,45.23,52.35,45.42,52.4,45.58z M57.44,49.95l-1.41-4.28c0.43-0.22,0.91-0.33,1.41-0.33
	c0.5,0,0.98,0.12,1.41,0.33L57.44,49.95z M57.44,41.93c-0.58,0-1.16,0.08-1.71,0.23V26.27h3.42v15.89
	C58.59,42,58.02,41.93,57.44,41.93z M55.73,17.73c0-0.94,0.77-1.71,1.71-1.71c0.94,0,1.71,0.77,1.71,1.71v5.12h-3.42V17.73z"/>
</svg>
