<?xml version="1.0" encoding="utf-8"?>
<!-- Generator: Adobe Illustrator 23.1.0, SVG Export Plug-In . SVG Version: 6.00 Build 0)  -->
<svg version="1.1" id="圖層_1" xmlns="http://www.w3.org/2000/svg" xmlns:xlink="http://www.w3.org/1999/xlink" x="0px" y="0px"
	 viewBox="0 0 66.35 64" style="enable-background:new 0 0 66.35 64;" xml:space="preserve">
<style type="text/css">
	.st0{filter:url(#Adobe_OpacityMaskFilter);}
	.st1{fill:url(#SVGID_2_);}
	.st2{fill:#FFFFFF;}
	.st3{clip-path:url(#SVGID_4_);}
	.st4{filter:url(#Adobe_OpacityMaskFilter_1_);}
	.st5{fill:url(#SVGID_6_);}
	.st6{mask:url(#SVGID_5_);}
	.st7{filter:url(#Adobe_OpacityMaskFilter_2_);}
	.st8{fill:url(#SVGID_8_);}
	.st9{mask:url(#SVGID_7_);}
	.st10{fill:url(#SVGID_9_);}
	.st11{filter:url(#Adobe_OpacityMaskFilter_3_);}
	.st12{fill:url(#SVGID_11_);}
	.st13{filter:url(#Adobe_OpacityMaskFilter_4_);}
	.st14{fill:url(#SVGID_13_);}
	.st15{fill:url(#SVGID_14_);}
	.st16{clip-path:url(#SVGID_16_);}
	.st17{filter:url(#Adobe_OpacityMaskFilter_5_);}
	.st18{fill:url(#SVGID_19_);}
	.st19{mask:url(#_x38_9089774_x5F_m.psd_4_);}
	.st20{filter:url(#Adobe_OpacityMaskFilter_6_);}
	.st21{fill:url(#SVGID_22_);}
	.st22{mask:url(#_x38_9089774_x5F_m.psd_6_);}
	.st23{fill:url(#SVGID_25_);}
	.st24{fill:url(#SVGID_26_);}
	.st25{fill:#4CABD5;}
	.st26{fill:#0074C5;}
	.st27{fill:url(#SVGID_27_);}
	.st28{fill:url(#SVGID_28_);}
	.st29{fill:url(#SVGID_29_);}
	.st30{fill:url(#SVGID_30_);}
	.st31{fill:url(#SVGID_31_);}
	.st32{fill:url(#SVGID_32_);}
	.st33{fill:url(#SVGID_33_);}
	.st34{fill:url(#SVGID_34_);}
	.st35{fill:url(#SVGID_35_);}
	.st36{clip-path:url(#SVGID_37_);}
	.st37{clip-path:url(#SVGID_38_);}
	.st38{clip-path:url(#SVGID_39_);}
	.st39{clip-path:url(#SVGID_40_);}
	.st40{clip-path:url(#SVGID_41_);}
	.st41{clip-path:url(#SVGID_43_);}
	.st42{clip-path:url(#SVGID_44_);}
	.st43{clip-path:url(#SVGID_45_);}
	.st44{clip-path:url(#SVGID_46_);}
	.st45{fill:#E76B20;}
	.st46{fill:url(#SVGID_47_);}
	.st47{fill:url(#SVGID_49_);}
	.st48{fill:#0056B4;}
	.st49{fill:url(#SVGID_50_);}
	.st50{fill:url(#SVGID_51_);}
	.st51{fill:#2F70A5;}
	.st52{fill:#747678;}
	.st53{fill:none;stroke:#0056B4;stroke-miterlimit:10;}
	.st54{opacity:0.2;fill:#FFFFFF;}
	.st55{clip-path:url(#SVGID_53_);}
	.st56{fill:none;stroke:#E76B20;stroke-miterlimit:10;}
	.st57{fill:none;stroke:#0056B4;stroke-width:11;stroke-miterlimit:10;}
	.st58{fill:url(#SVGID_57_);}
	.st59{fill:url(#SVGID_58_);}
	.st60{fill:url(#SVGID_59_);}
	.st61{fill:none;stroke:#E76B20;stroke-width:2;stroke-miterlimit:10;}
	.st62{fill:#FFFF00;}
	.st63{fill:#D7D7D5;}
	.st64{fill:url(#SVGID_61_);}
	.st65{fill:url(#SVGID_62_);}
	.st66{fill:none;stroke:#E76B20;stroke-width:3;stroke-miterlimit:10;}
	.st67{fill:url(#SVGID_63_);}
	.st68{fill:url(#SVGID_64_);}
	.st69{fill:#FFFFFF;stroke:#74C8D2;stroke-linecap:round;stroke-linejoin:round;stroke-miterlimit:10;}
	.st70{clip-path:url(#SVGID_74_);fill:none;stroke:#FFFFFF;stroke-width:0.75;stroke-miterlimit:10;}
	.st71{clip-path:url(#SVGID_76_);fill:none;stroke:#FFFFFF;stroke-width:0.75;stroke-miterlimit:10;}
	.st72{clip-path:url(#SVGID_79_);fill:none;stroke:#FFFFFF;stroke-width:0.75;stroke-miterlimit:10;}
	.st73{fill:#1ECAD3;stroke:#FFFFFF;stroke-miterlimit:10;}
	.st74{clip-path:url(#SVGID_83_);fill:none;stroke:#FFFFFF;stroke-width:0.75;stroke-miterlimit:10;}
	.st75{fill:#1DCAD3;stroke:#FFFFFF;stroke-miterlimit:10;}
	.st76{fill:none;stroke:#1DCAD3;stroke-linecap:round;stroke-linejoin:round;stroke-miterlimit:10;}
	.st77{fill:#1DCAD3;}
	.st78{filter:url(#Adobe_OpacityMaskFilter_7_);}
	.st79{fill:url(#SVGID_86_);}
	.st80{opacity:0.1;}
	.st81{fill:#FF6C0E;}
	.st82{fill:none;stroke:#FF5100;stroke-miterlimit:10;}
	.st83{fill:#FFFFFF;stroke:#BFBFBF;stroke-miterlimit:10;}
	.st84{filter:url(#Adobe_OpacityMaskFilter_8_);}
	.st85{clip-path:url(#SVGID_88_);fill:url(#SVGID_90_);}
	.st86{fill:#0055B8;}
	.st87{fill:#BFBFBF;}
	.st88{fill:none;stroke:url(#SVGID_91_);stroke-width:2;stroke-miterlimit:10;}
	.st89{fill:none;stroke:url(#SVGID_92_);stroke-width:2;stroke-miterlimit:10;}
	.st90{fill:none;stroke:url(#SVGID_93_);stroke-width:3;stroke-miterlimit:10;}
	.st91{fill:none;stroke:url(#SVGID_94_);stroke-width:3;stroke-miterlimit:10;}
	.st92{fill:none;stroke:url(#SVGID_95_);stroke-width:2;stroke-miterlimit:10;}
	.st93{fill:url(#SVGID_96_);}
	.st94{fill:url(#SVGID_97_);}
	.st95{fill:#EEFF68;}
	.st96{clip-path:url(#SVGID_99_);fill:url(#SVGID_100_);}
	.st97{fill:url(#SVGID_101_);}
	.st98{fill:url(#SVGID_102_);}
	.st99{clip-path:url(#SVGID_104_);fill:url(#SVGID_105_);}
	.st100{filter:url(#Adobe_OpacityMaskFilter_9_);}
	.st101{clip-path:url(#SVGID_107_);fill:url(#SVGID_109_);}
	.st102{fill:none;}
	.st103{fill:url(#SVGID_110_);}
	.st104{fill:url(#SVGID_111_);}
	.st105{clip-path:url(#SVGID_113_);fill:url(#SVGID_114_);}
	.st106{fill:#A1A1A1;}
	.st107{fill:none;stroke:#FFFFFF;stroke-width:2;stroke-linecap:round;stroke-linejoin:round;stroke-miterlimit:10;}
	.st108{clip-path:url(#SVGID_118_);fill:none;stroke:#FFFFFF;stroke-width:0.75;stroke-miterlimit:10;}
	.st109{clip-path:url(#SVGID_122_);fill:none;stroke:#FFFFFF;stroke-width:0.75;stroke-miterlimit:10;}
	.st110{fill:none;stroke:#1ECAD3;stroke-linecap:round;stroke-linejoin:round;stroke-miterlimit:10;}
	.st111{fill:#1ECAD3;}
	.st112{filter:url(#Adobe_OpacityMaskFilter_10_);}
	.st113{fill:url(#SVGID_124_);}
	.st114{filter:url(#Adobe_OpacityMaskFilter_11_);}
	.st115{clip-path:url(#SVGID_126_);fill:url(#SVGID_128_);}
	.st116{filter:url(#Adobe_OpacityMaskFilter_12_);}
	.st117{fill:url(#SVGID_130_);}
	.st118{opacity:0.5;fill:url(#SVGID_131_);}
	.st119{opacity:0.5;fill:url(#SVGID_132_);}
	.st120{filter:url(#Adobe_OpacityMaskFilter_13_);}
	.st121{fill:url(#SVGID_134_);}
	.st122{filter:url(#Adobe_OpacityMaskFilter_14_);}
	.st123{clip-path:url(#SVGID_136_);fill:url(#SVGID_138_);}
	.st124{fill:url(#SVGID_139_);}
	.st125{fill:url(#SVGID_140_);}
	.st126{fill:url(#SVGID_141_);}
	.st127{fill:url(#SVGID_142_);}
	.st128{fill:url(#SVGID_143_);}
	.st129{fill:url(#SVGID_144_);}
	.st130{fill:#3C974C;}
	.st131{filter:url(#Adobe_OpacityMaskFilter_15_);}
	.st132{fill:url(#SVGID_146_);}
	.st133{mask:url(#SVGID_145_);}
	.st134{opacity:0.5;fill:url(#SVGID_147_);}
	.st135{opacity:0.5;fill:url(#SVGID_148_);}
	.st136{clip-path:url(#SVGID_150_);fill:url(#SVGID_151_);}
	.st137{fill:url(#SVGID_152_);}
	.st138{fill:url(#SVGID_153_);}
	.st139{fill:url(#SVGID_154_);}
	.st140{filter:url(#Adobe_OpacityMaskFilter_16_);}
	.st141{clip-path:url(#SVGID_156_);fill:url(#SVGID_158_);}
	.st142{fill:none;stroke:#FF5100;stroke-width:2;stroke-miterlimit:10;}
	.st143{filter:url(#Adobe_OpacityMaskFilter_17_);}
	.st144{fill:url(#SVGID_159_);}
	.st145{mask:url(#_x38_9089774_x5F_m.psd_8_);}
	.st146{fill:url(#SVGID_162_);}
	.st147{fill:url(#SVGID_163_);}
</style>
<g>
	<path class="st48" d="M3.99,58.83c0,1.09,0.89,1.98,1.98,1.98h55.59c1.09,0,1.98-0.89,1.98-1.98V5.18c0-1.09-0.89-1.98-1.98-1.98
		H5.98c-1.09,0-1.98,0.89-1.98,1.98V58.83z M7.96,7.16h51.63v32.01h-27.1v-7l7.61-7.54c0.37-0.37,0.58-0.88,0.59-1.4
		c0-0.53-0.21-1.03-0.58-1.41l-0.05-0.05l11.27-8.45c0.88-0.66,1.05-1.9,0.4-2.77c-0.66-0.88-1.9-1.05-2.77-0.4l-11.72,8.79
		l-0.38-0.38c-0.64-0.64-1.63-0.77-2.41-0.3l-3.95,2.34c0.21-0.74,0.32-1.52,0.32-2.32c0-4.7-3.82-8.52-8.52-8.52
		c-4.7,0-8.52,3.82-8.52,8.52c0,1.95,0.66,3.74,1.76,5.18c-1.95,1.7-2.48,4.28-2.69,5.33c-0.56,2.73-0.63,6.29-0.64,10.39H7.96V7.16
		z M22.26,22.82c-2.51,0-4.56-2.04-4.56-4.56c0-2.51,2.05-4.56,4.56-4.56s4.56,2.05,4.56,4.56C26.82,20.77,24.77,22.82,22.26,22.82
		L22.26,22.82z M16.7,29.56c0.28-1.38,0.66-2.24,1.09-2.78h9.45c0.36,0,0.71-0.1,1.01-0.28l6.87-4.07l0.78,0.78l-6.78,6.72
		c-0.37,0.37-0.59,0.88-0.59,1.41v7.83H16.13C16.14,35.28,16.21,31.94,16.7,29.56L16.7,29.56z M59.58,43.13v13.72H7.96V43.13H59.58z
		 M59.58,43.13"/>
	<path class="st48" d="M55.73,47.79H20.06v-0.61c0-1.09-0.89-1.98-1.98-1.98c-1.09,0-1.98,0.89-1.98,1.98v0.61h-4.28
		c-1.09,0-1.98,0.89-1.98,1.98c0,1.09,0.89,1.98,1.98,1.98h4.28v0.61c0,1.09,0.89,1.98,1.98,1.98c1.09,0,1.98-0.89,1.98-1.98v-0.61
		h35.67c1.09,0,1.98-0.89,1.98-1.98C57.71,48.67,56.82,47.79,55.73,47.79L55.73,47.79z M55.73,47.79"/>
</g>
</svg>
